<svg width="1020" height="1085" viewBox="0 0 1020 1085" fill="none" xmlns="http://www.w3.org/2000/svg">
<rect y="90.2651" width="1020" height="976.177" rx="10" fill="#302F42"/>
<path d="M702 223C713.333 223 719 252.667 719 312C719 370.667 713.333 400 702 400H519V514H641C652.333 514 658 540 658 592C658 643.333 652.667 669 642 669H519V910C519 919.333 506.333 925.333 481 928C456.333 931.333 435.667 933 419 933L372 931C339.333 927 323 920.333 323 911V249C323 238.333 325 231.333 329 228C333.667 224.667 340.333 223 349 223H702Z" fill="#F1B054"/>
</svg>
